<svg width="52" height="52" viewBox="0 0 52 52" fill="none" xmlns="http://www.w3.org/2000/svg">
<path d="M26 29.0333L32.2833 35.3167C32.6806 35.7139 33.1861 35.9125 33.8 35.9125C34.4139 35.9125 34.9195 35.7139 35.3167 35.3167C35.7139 34.9195 35.9125 34.4139 35.9125 33.8C35.9125 33.1861 35.7139 32.6806 35.3167 32.2833L29.0333 26L35.3167 19.7167C35.7139 19.3195 35.9125 18.8139 35.9125 18.2C35.9125 17.5861 35.7139 17.0806 35.3167 16.6833C34.9195 16.2861 34.4139 16.0875 33.8 16.0875C33.1861 16.0875 32.6806 16.2861 32.2833 16.6833L26 22.9667L19.7167 16.6833C19.3195 16.2861 18.8139 16.0875 18.2 16.0875C17.5861 16.0875 17.0806 16.2861 16.6833 16.6833C16.2861 17.0806 16.0875 17.5861 16.0875 18.2C16.0875 18.8139 16.2861 19.3195 16.6833 19.7167L22.9667 26L16.6833 32.2833C16.2861 32.6806 16.0875 33.1861 16.0875 33.8C16.0875 34.4139 16.2861 34.9195 16.6833 35.3167C17.0806 35.7139 17.5861 35.9125 18.2 35.9125C18.8139 35.9125 19.3195 35.7139 19.7167 35.3167L26 29.0333ZM26 47.6667C23.0028 47.6667 20.1861 47.0979 17.55 45.9604C14.9139 44.8229 12.6208 43.2792 10.6708 41.3292C8.72084 39.3792 7.17709 37.0861 6.03959 34.45C4.90209 31.8139 4.33334 28.9972 4.33334 26C4.33334 23.0028 4.90209 20.1861 6.03959 17.55C7.17709 14.9139 8.72084 12.6208 10.6708 10.6708C12.6208 8.72084 14.9139 7.17709 17.55 6.03959C20.1861 4.90209 23.0028 4.33334 26 4.33334C28.9972 4.33334 31.8139 4.90209 34.45 6.03959C37.0861 7.17709 39.3792 8.72084 41.3292 10.6708C43.2792 12.6208 44.8229 14.9139 45.9604 17.55C47.0979 20.1861 47.6667 23.0028 47.6667 26C47.6667 28.9972 47.0979 31.8139 45.9604 34.45C44.8229 37.0861 43.2792 39.3792 41.3292 41.3292C39.3792 43.2792 37.0861 44.8229 34.45 45.9604C31.8139 47.0979 28.9972 47.6667 26 47.6667ZM26 43.3333C30.8389 43.3333 34.9375 41.6542 38.2958 38.2958C41.6542 34.9375 43.3333 30.8389 43.3333 26C43.3333 21.1611 41.6542 17.0625 38.2958 13.7042C34.9375 10.3458 30.8389 8.66668 26 8.66668C21.1611 8.66668 17.0625 10.3458 13.7042 13.7042C10.3458 17.0625 8.66668 21.1611 8.66668 26C8.66668 30.8389 10.3458 34.9375 13.7042 38.2958C17.0625 41.6542 21.1611 43.3333 26 43.3333Z" fill="white"/>
</svg>
